# xmcd
#
# Track frame offsets:
#	150
#	14026
#	26880
#	44917
#	59499
#	79298
#	109785
#	126783
#	142915
#	160025
#	177395
#	184019
#	204192
#	219593
#	239532
#	255175
#	272070
#	286391
#	311948
#	329253
#
# Disc length: 4600 seconds
#
# Revision: 1
# Processed by: cddbd v1.5PL3 Copyright (c) Steve Scherf et al.
# Submitted via: EasyCDDAExtractor 6.0.0.1
#
DISCID=3011f614
DTITLE=Various Artist - 98.1 KVET Genuine Texas Music
DYEAR=2004
DGENRE=Country
TTITLE0=Jason Allen - Lucky Arms
TTITLE1=Jack Ingram - Attitude and Drivin' (studio version)
TTITLE2=Owen Temple - Tennessee Highway
TTITLE3=Pat Green - Here We Go
TTITLE4=Doug Moreland - Before I Leave Mexico
TTITLE5=Wade Bowen and Jessica Murray - I Wonder
TTITLE6=Cory Morrow - 21 Days
TTITLE7=Randy Rogers - Lost And Found
TTITLE8=Kyle Family - Wayfaring Stranger
TTITLE9=Deryl Dodd - Things Are Fixin' To Get Real Good
TTITLE10=Radney Foster - Everyday Angel Intro (Live @ Gruene with Envy Awards)
TTITLE11=Radney Foster - Everyday Angel (Live @ Gruene with Envy Awards)
TTITLE12=Pauline Reese - Don't Leave Me Standing Here
TTITLE13=Django Walker - Blacktop Texas Highway
TTITLE14=The Geezinslaws - People Who Need People (God Bless John Wayne)
TTITLE15=Aaron Watson - Off The Record
TTITLE16=Ricky Calmbach - Texas Standard Time
TTITLE17=Pete Dawson - Willie Nelson for President
TTITLE18=Bruce Robison - Blame It On Me
TTITLE19=Kevin Fowler - Señorita Mas Fina (Live at the KVET Sessions)
EXTD=
EXTT0=
EXTT1=
EXTT2=
EXTT3=
EXTT4=
EXTT5=
EXTT6=
EXTT7=
EXTT8=
EXTT9=
EXTT10=
EXTT11=
EXTT12=
EXTT13=
EXTT14=
EXTT15=
EXTT16=
EXTT17=
EXTT18=
EXTT19=
PLAYORDER=
